<svg width="46" height="31" viewBox="0 0 46 31" fill="none" xmlns="http://www.w3.org/2000/svg">
<path d="M22.0019 11.4222C21.9519 10.9579 21.9233 10.4793 21.9233 10.0007C21.9233 9.51494 21.9519 9.03632 22.0019 8.56485H8.89363L7.78639 4.35735C7.62209 3.72872 7.05061 3.29297 6.4077 3.29297H1.4287C0.642913 3.29297 0 3.93588 0 4.72166C0 5.50745 0.642913 6.15036 1.4287 6.15036H5.3076L6.41484 10.365C6.41484 10.3722 6.42199 10.3722 6.42199 10.3722L9.89372 23.759C10.058 24.3877 10.6295 24.8234 11.2796 24.8234H11.451C11.2438 25.3377 11.1295 25.8949 11.1295 26.4807C11.1295 28.9666 13.1511 30.9882 15.6371 30.9882C18.123 30.9882 20.1446 28.9666 20.1446 26.4807C20.1446 25.8949 20.0303 25.3377 19.8231 24.8234H23.2234C23.0163 25.3377 22.902 25.8949 22.902 26.4807C22.902 28.9666 24.9236 30.9882 27.4095 30.9882C29.8955 30.9882 31.9171 28.9666 31.9171 26.4807C31.9171 25.8949 31.8028 25.3377 31.5956 24.8234H31.767C32.4171 24.8234 32.9886 24.3877 33.1529 23.759L33.3029 23.1804C31.9171 22.9804 30.6027 22.5589 29.3883 21.966C25.3736 19.9944 22.4948 16.0584 22.0019 11.4222ZM17.2872 26.4807C17.2872 27.3879 16.5514 28.1308 15.6371 28.1308C14.7298 28.1308 13.9869 27.3879 13.9869 26.4807C13.9869 25.5663 14.7298 24.8234 15.6371 24.8234C16.5514 24.8234 17.2872 25.5663 17.2872 26.4807ZM29.0597 26.4807C29.0597 27.3879 28.3167 28.1308 27.4095 28.1308C26.4952 28.1308 25.7594 27.3879 25.7594 26.4807C25.7594 25.5663 26.4952 24.8234 27.4095 24.8234C28.3167 24.8234 29.0597 25.5663 29.0597 26.4807Z" fill="white"/>
<g filter="url(#filter0_b_711_1270)">
<circle cx="34.6456" cy="10.7794" r="10.4473" fill="#C7C7C7" fill-opacity="0.1"/>
</g>
<path d="M34.6121 7.25117C35.5781 7.25117 36.321 7.55765 36.8407 8.17061C37.3604 8.78357 37.6202 9.6597 37.6202 10.799C37.6202 11.9383 37.3604 12.8144 36.8407 13.4274C36.321 14.0404 35.5781 14.3468 34.6121 14.3468C33.646 14.3468 32.9031 14.0404 32.3834 13.4274C31.8637 12.8144 31.6039 11.9383 31.6039 10.799C31.6039 9.6597 31.8637 8.78357 32.3834 8.17061C32.9031 7.55765 33.646 7.25117 34.6121 7.25117ZM34.6121 8.24056C34.0657 8.24056 33.656 8.44711 33.3828 8.86019C33.1163 9.27327 32.9831 9.91954 32.9831 10.799C32.9831 11.6718 33.1163 12.3181 33.3828 12.7378C33.656 13.1509 34.0657 13.3574 34.6121 13.3574C35.1651 13.3574 35.5748 13.1509 35.8413 12.7378C36.1078 12.3181 36.2411 11.6718 36.2411 10.799C36.2411 9.91954 36.1078 9.27327 35.8413 8.86019C35.5748 8.44711 35.1651 8.24056 34.6121 8.24056Z" fill="white"/>
<defs>
<filter id="filter0_b_711_1270" x="-12.3316" y="-36.1978" width="93.9542" height="93.9542" filterUnits="userSpaceOnUse" color-interpolation-filters="sRGB">
<feFlood flood-opacity="0" result="BackgroundImageFix"/>
<feGaussianBlur in="BackgroundImageFix" stdDeviation="18.2649"/>
<feComposite in2="SourceAlpha" operator="in" result="effect1_backgroundBlur_711_1270"/>
<feBlend mode="normal" in="SourceGraphic" in2="effect1_backgroundBlur_711_1270" result="shape"/>
</filter>
</defs>
</svg>
