<svg width="30" height="37" viewBox="0 0 30 37" fill="none" xmlns="http://www.w3.org/2000/svg">
<g id="Vector">
<path d="M22.0586 15.8355H7.52725C7.20608 15.8355 6.89808 15.9636 6.67098 16.1916C6.44388 16.4197 6.3163 16.729 6.3163 17.0514C6.3163 17.3739 6.44388 17.6832 6.67098 17.9112C6.89808 18.1393 7.20608 18.2674 7.52725 18.2674H22.0586C22.3798 18.2674 22.6878 18.1393 22.9149 17.9112C23.142 17.6832 23.2696 17.3739 23.2696 17.0514C23.2696 16.729 23.142 16.4197 22.9149 16.1916C22.6878 15.9636 22.3798 15.8355 22.0586 15.8355Z" fill="black"/>
<path d="M22.0586 21.9152H7.52725C7.20608 21.9152 6.89808 22.0433 6.67098 22.2714C6.44388 22.4994 6.3163 22.8087 6.3163 23.1312C6.3163 23.4536 6.44388 23.7629 6.67098 23.991C6.89808 24.219 7.20608 24.3471 7.52725 24.3471H22.0586C22.3798 24.3471 22.6878 24.219 22.9149 23.991C23.142 23.7629 23.2696 23.4536 23.2696 23.1312C23.2696 22.8087 23.142 22.4994 22.9149 22.2714C22.6878 22.0433 22.3798 21.9152 22.0586 21.9152Z" fill="black"/>
<path d="M14.7929 27.9949H7.52725C7.20608 27.9949 6.89808 28.123 6.67098 28.3511C6.44388 28.5791 6.3163 28.8884 6.3163 29.2109C6.3163 29.5334 6.44388 29.8426 6.67098 30.0707C6.89808 30.2987 7.20608 30.4268 7.52725 30.4268H14.7929C15.1141 30.4268 15.4221 30.2987 15.6492 30.0707C15.8763 29.8426 16.0039 29.5334 16.0039 29.2109C16.0039 28.8884 15.8763 28.5791 15.6492 28.3511C15.4221 28.123 15.1141 27.9949 14.7929 27.9949Z" fill="black"/>
<path d="M29.1923 10.5984L19.1717 0.535305C18.8569 -0.0130845 18.1 -0.0106527 11.4023 0.00393864C8.02616 0.0124502 4.65609 0.0282575 4.66215 0.0282575C3.42606 0.029545 2.24097 0.523174 1.36693 1.40082C0.492883 2.27847 0.00128225 3.46845 0 4.70963V31.8251C0.00128225 33.0663 0.492883 34.2563 1.36693 35.134C2.24097 36.0116 3.42606 36.5052 4.66215 36.5065H24.885C26.1203 36.5056 27.3049 36.0127 28.1788 35.136C29.0528 34.2594 29.5449 33.0704 29.5471 31.83C29.6367 11.0447 29.6367 11.0447 29.1923 10.5984ZM19.3752 4.1807L25.4129 10.2422H19.3752V4.1807ZM27.1252 31.8251C27.1246 32.4215 26.8883 32.9933 26.4684 33.4151C26.0484 33.8368 25.4789 34.074 24.885 34.0746H4.66215C4.06819 34.074 3.49875 33.8368 3.07876 33.4151C2.65877 32.9933 2.42254 32.4215 2.42189 31.8251V4.70963C2.42286 4.11227 2.66002 3.53975 3.08125 3.11792C3.50248 2.69609 4.0733 2.4595 4.6682 2.46014C7.77307 2.44555 11.8891 2.43217 14.7372 2.43217H16.9533V11.4581C16.9533 11.7806 17.0808 12.0899 17.3079 12.3179C17.535 12.5459 17.843 12.6741 18.1642 12.6741H27.1531C27.1785 15.8683 27.1531 25.2858 27.1252 31.8251Z" fill="black"/>
</g>
</svg>
