<svg width="40" height="40" viewBox="0 0 40 40" fill="none" xmlns="http://www.w3.org/2000/svg">
<g id="fi_3324169" clip-path="url(#clip0_0_2922)">
<g id="Group">
<path id="Vector" d="M1.66667 21.6667C2.10869 21.6667 2.53262 21.4911 2.84518 21.1785C3.15774 20.866 3.33333 20.442 3.33333 20C3.33333 19.558 3.50893 19.134 3.82149 18.8215C4.13405 18.5089 4.55797 18.3333 5 18.3333H20C20.442 18.3333 20.8659 18.5089 21.1785 18.8215C21.4911 19.134 21.6667 19.558 21.6667 20V28.3333C21.6667 28.7754 21.8423 29.1993 22.1548 29.5118C22.4674 29.8244 22.8913 30 23.3333 30C23.7754 30 24.1993 29.8244 24.5118 29.5118C24.8244 29.1993 25 28.7754 25 28.3333V20C25 18.6739 24.4732 17.4021 23.5355 16.4645C22.5979 15.5268 21.3261 15 20 15H5C3.67392 15 2.40215 15.5268 1.46447 16.4645C0.526784 17.4021 0 18.6739 0 20C0 20.442 0.175595 20.866 0.488155 21.1785C0.800716 21.4911 1.22464 21.6667 1.66667 21.6667Z" fill="black"/>
<path id="Vector_2" d="M5 40.0007H20C21.3261 40.0007 22.5979 39.4739 23.5355 38.5362C24.4732 37.5985 25 36.3267 25 35.0007V33.334C25 32.892 24.8244 32.468 24.5118 32.1555C24.1993 31.8429 23.7754 31.6673 23.3333 31.6673C22.8913 31.6673 22.4674 31.8429 22.1548 32.1555C21.8423 32.468 21.6667 32.892 21.6667 33.334V35.0007C21.6667 35.4427 21.4911 35.8666 21.1785 36.1792C20.8659 36.4917 20.442 36.6673 20 36.6673H5C4.55797 36.6673 4.13405 36.4917 3.82149 36.1792C3.50893 35.8666 3.33333 35.4427 3.33333 35.0007V25.0007C3.33333 24.5586 3.15774 24.1347 2.84518 23.8221C2.53262 23.5096 2.10869 23.334 1.66667 23.334C1.22464 23.334 0.800716 23.5096 0.488155 23.8221C0.175595 24.1347 0 24.5586 0 25.0007L0 35.0007C0 36.3267 0.526784 37.5985 1.46447 38.5362C2.40215 39.4739 3.67392 40.0007 5 40.0007Z" fill="black"/>
<path id="Vector_3" d="M0.133395 5.64047C0.214179 5.84253 0.334925 6.0262 0.488395 6.18047L3.82173 9.51381C4.1392 9.81681 4.5612 9.98587 5.00006 9.98587C5.43893 9.98587 5.86092 9.81681 6.1784 9.51381C6.49085 9.20126 6.66637 8.77741 6.66637 8.33547C6.66637 7.89353 6.49085 7.46969 6.1784 7.15714L5.69006 6.66714H19.3084L18.8201 7.15547C18.6651 7.31026 18.5422 7.49407 18.4583 7.6964C18.3744 7.89873 18.3313 8.11561 18.3313 8.33464C18.3313 8.55367 18.3744 8.77054 18.4583 8.97287C18.5422 9.1752 18.6651 9.35902 18.8201 9.51381C19.1356 9.82116 19.5587 9.99316 19.9992 9.99316C20.4397 9.99316 20.8628 9.82116 21.1784 9.51381L24.5117 6.18047C24.8173 5.86231 24.9879 5.43827 24.9879 4.99714C24.9879 4.556 24.8173 4.13197 24.5117 3.81381L21.1884 0.480472C20.8759 0.167516 20.4518 -0.00847608 20.0096 -0.00878865C19.5673 -0.00910121 19.143 0.166291 18.8301 0.478805C18.5171 0.791318 18.3411 1.21535 18.3408 1.65763C18.3405 2.0999 18.5159 2.52418 18.8284 2.83714L19.3101 3.33381H5.69006L6.1784 2.84714C6.49113 2.53462 6.66691 2.11068 6.66707 1.66856C6.66722 1.22644 6.49174 0.802373 6.17923 0.489638C5.86671 0.176904 5.44277 0.00112356 5.00065 0.000967277C4.55853 0.000810998 4.13446 0.176291 3.82173 0.488805L0.488395 3.82214C0.260066 4.05865 0.105053 4.35617 0.0420615 4.67882C-0.0209303 5.00147 0.0107899 5.33545 0.133395 5.64047Z" fill="black"/>
<path id="Vector_4" d="M37.1549 21.1803C37.4679 21.4928 37.8922 21.6682 38.3345 21.6679C38.7767 21.6676 39.2008 21.4916 39.5133 21.1786C39.8258 20.8657 40.0012 20.4414 40.0009 19.9991C40.0006 19.5569 39.8246 19.1328 39.5116 18.8203L36.1783 15.487C35.8595 15.1826 35.4357 15.0127 34.9949 15.0127C34.5542 15.0127 34.1304 15.1826 33.8116 15.487L30.4783 18.8103C30.1653 19.1228 29.9893 19.5469 29.989 19.9891C29.9887 20.4314 30.1641 20.8557 30.4766 21.1687C30.7891 21.4816 31.2132 21.6576 31.6554 21.6579C32.0977 21.6582 32.522 21.4828 32.8349 21.1703L33.3333 20.6903V34.3103L32.8466 33.822C32.6919 33.6671 32.5081 33.5443 32.3059 33.4604C32.1037 33.3766 31.8869 33.3334 31.668 33.3333C31.4491 33.3332 31.2323 33.3763 31.03 33.46C30.8278 33.5437 30.644 33.6664 30.4891 33.8211C30.3343 33.9759 30.2114 34.1596 30.1276 34.3618C30.0437 34.5641 30.0005 34.7808 30.0004 34.9997C30.0004 35.2186 30.0434 35.4354 30.1271 35.6377C30.2108 35.84 30.3335 36.0238 30.4883 36.1787L33.8216 39.512C34.1382 39.8174 34.5609 39.9881 35.0008 39.9881C35.4407 39.9881 35.8634 39.8174 36.1799 39.512L39.5133 36.1787C39.8169 35.8643 39.9849 35.4433 39.9811 35.0063C39.9773 34.5693 39.802 34.1513 39.493 33.8423C39.184 33.5333 38.7659 33.358 38.3289 33.3542C37.8919 33.3504 37.4709 33.5184 37.1566 33.822L36.6666 34.3103V20.692L37.1549 21.1803Z" fill="black"/>
</g>
</g>
<defs>
<clipPath id="clip0_0_2922">
<rect width="40" height="40" fill="white"/>
</clipPath>
</defs>
</svg>
