<svg width="39" height="39" viewBox="0 0 39 39" fill="none" xmlns="http://www.w3.org/2000/svg">
<g id="fi_661512" clip-path="url(#clip0_0_2905)">
<g id="Group">
<g id="Group_2">
<g id="Group_3">
<path id="Vector" d="M21.0234 17.5195H17.9766V20.5664H21.0234V17.5195Z" fill="black"/>
<path id="Vector_2" d="M34.4297 3.04688H32.6016V0H29.5547V3.04688H9.44531V0H6.39844V3.04688H4.57031C2.05024 3.04688 0 5.09712 0 7.61719V34.4297C0 36.9498 2.05024 39 4.57031 39H14.7012H14.9297H20.2436C19.1903 38.1306 18.2729 37.1025 17.5271 35.9531H14.9297H14.7012H4.57031C3.73029 35.9531 3.04688 35.2697 3.04688 34.4297V14.3203H35.9531V17.3672V17.5195V17.5271C37.1024 18.2729 38.1306 19.1904 39 20.2436V17.5195V17.3672V7.61719C39 5.09712 36.9498 3.04688 34.4297 3.04688ZM35.9531 11.2734H3.04688V7.61719C3.04688 6.77716 3.73029 6.09375 4.57031 6.09375H6.39844V9.14062H9.44531V6.09375H29.5547V9.14062H32.6016V6.09375H34.4297C35.2697 6.09375 35.9531 6.77716 35.9531 7.61719V11.2734Z" fill="black"/>
<path id="Vector_3" d="M28.7168 18.4336C23.0466 18.4336 18.4336 23.0466 18.4336 28.7168C18.4336 34.387 23.0466 39 28.7168 39C34.387 39 39 34.387 39 28.7168C39 23.0466 34.387 18.4336 28.7168 18.4336ZM28.7168 35.9531C24.7267 35.9531 21.4805 32.7069 21.4805 28.7168C21.4805 24.7267 24.7267 21.4805 28.7168 21.4805C32.7069 21.4805 35.9531 24.7267 35.9531 28.7168C35.9531 32.7069 32.7069 35.9531 28.7168 35.9531Z" fill="black"/>
<path id="Vector_4" d="M30.1641 23.6133H27.1172V30.2402H32.7539V27.1934H30.1641V23.6133Z" fill="black"/>
<path id="Vector_5" d="M14.9297 23.6133H11.8828V26.6602H14.9297V23.6133Z" fill="black"/>
<path id="Vector_6" d="M8.83594 23.6133H5.78906V26.6602H8.83594V23.6133Z" fill="black"/>
<path id="Vector_7" d="M8.83594 17.5195H5.78906V20.5664H8.83594V17.5195Z" fill="black"/>
<path id="Vector_8" d="M8.83594 29.707H5.78906V32.7539H8.83594V29.707Z" fill="black"/>
<path id="Vector_9" d="M14.9297 17.5195H11.8828V20.5664H14.9297V17.5195Z" fill="black"/>
<path id="Vector_10" d="M14.9297 29.707H11.8828V32.7539H14.9297V29.707Z" fill="black"/>
</g>
</g>
</g>
</g>
<defs>
<clipPath id="clip0_0_2905">
<rect width="39" height="39" fill="white"/>
</clipPath>
</defs>
</svg>
