<svg width="39" height="39" viewBox="0 0 39 39" fill="none" xmlns="http://www.w3.org/2000/svg">
<g id="fi_44386" clip-path="url(#clip0_0_2893)">
<g id="Group">
<g id="Group_2">
<path id="Vector" d="M28.4184 8.67447L28.4561 8.96401L28.0221 9.05384L27.9644 9.67062H28.4841L29.1755 9.60405L29.5324 9.17976L29.153 9.03218L28.9453 8.79317L28.6333 8.28787L28.4841 7.57324L27.8978 7.69275L27.7334 7.94459V8.22852L28.0157 8.42182L28.4184 8.67447Z" fill="black"/>
<path id="Vector_2" d="M27.9188 8.91192L27.9501 8.52533L27.606 8.37695L27.1247 8.48844L26.7678 9.06111V9.43246H27.1841L27.9188 8.91192Z" fill="black"/>
<path id="Vector_3" d="M18.0134 10.5538L17.9075 10.8265H17.395V11.0912H17.5169C17.5169 11.0912 17.5242 11.1473 17.5346 11.2211L17.849 11.1947L18.0455 11.0727L18.0968 10.8265L18.3511 10.8049L18.4513 10.5979L18.2179 10.5498L18.0134 10.5538Z" fill="black"/>
<path id="Vector_4" d="M16.6924 11.0339L16.6724 11.293L17.0437 11.2617L17.0822 11.0018L16.8592 10.8262L16.6924 11.0339Z" fill="black"/>
<path id="Vector_5" d="M38.9952 19.2983C38.9896 18.728 38.9607 18.1618 38.907 17.6043C38.7265 15.746 38.2822 13.9646 37.6165 12.2947C37.5667 12.1704 37.521 12.0445 37.4681 11.9218C36.581 9.826 35.3354 7.9179 33.8107 6.27128C33.7104 6.1638 33.6086 6.05793 33.5067 5.95367C33.2188 5.6545 32.9228 5.36255 32.6164 5.08263C29.1499 1.92654 24.5461 0 19.4996 0C14.4106 0 9.77386 1.96103 6.29775 5.16524C5.48767 5.91196 4.74336 6.72685 4.06803 7.59949C1.5207 10.8943 0 15.0217 0 19.4996C0 30.2528 8.74803 39 19.5004 39C27.0638 39 33.6302 34.6689 36.8625 28.3583C37.5539 27.0093 38.0921 25.5712 38.4546 24.0641C38.5468 23.6815 38.6262 23.2973 38.6952 22.9083C38.8917 21.8007 38.9992 20.6618 38.9992 19.4996C39 19.4322 38.996 19.3657 38.9952 19.2983ZM35.325 11.5047L35.4381 11.378C35.5864 11.6659 35.7252 11.9587 35.8575 12.2554L35.6731 12.2482L35.325 12.2963V11.5047ZM32.5074 8.10238L32.5106 7.23134C32.8169 7.55617 33.1121 7.89063 33.3944 8.23712L33.0431 8.76006L31.8152 8.74883L31.7382 8.49298L32.5074 8.10238ZM8.98464 5.93762V5.90474H9.37524L9.40893 5.7708H10.0482V6.04991L9.86449 6.29534H8.98384L8.98464 5.93762ZM9.60864 6.80786C9.60864 6.80786 9.99924 6.74129 10.0329 6.74129C10.0666 6.74129 10.0329 7.13108 10.0329 7.13108L9.15227 7.18643L8.98464 6.98591L9.60864 6.80786ZM36.5674 14.5485H35.1405L34.2711 13.9012L33.3559 13.9903V14.5485H33.0664L32.7536 14.3255L31.1687 13.9237V12.8971L29.1604 13.0535L28.538 13.3879H27.7407L27.3501 13.3486L26.382 13.886V14.8974L24.4034 16.3251L24.5678 16.9346H24.9688L24.8638 17.5153L24.5814 17.6188L24.5662 19.1363L26.2762 21.0837H27.0205L27.0654 20.965H28.4032L28.789 20.608H29.5478L29.964 21.0251L31.0949 21.1422L30.9449 22.6461L32.2002 24.8621L31.5393 26.1254L31.5842 26.7205L32.1047 27.2394V28.6703L32.7881 29.5895V30.7781H33.3784C30.0932 34.8117 25.0931 37.3951 19.4988 37.3951C9.6319 37.3959 1.60411 29.3673 1.60411 19.4996C1.60411 17.0156 2.11422 14.648 3.03258 12.496V11.9378L3.67262 11.1606C3.89479 10.7411 4.133 10.3321 4.38725 9.93347L4.41612 10.2583L3.67262 11.1606C3.44243 11.5953 3.22828 12.0397 3.03338 12.496V13.5147L3.77688 13.8724V15.288L4.48991 16.5047L5.0698 16.5937L5.14439 16.1767L4.46024 15.1212L4.32629 14.0953H4.72732L4.89656 15.1508L5.88549 16.5937L5.63044 17.0597L6.25925 18.0214L7.82085 18.408V18.1554L8.44565 18.2444L8.3863 18.6903L8.87716 18.7802L9.63511 18.9871L10.7059 20.207L12.0734 20.3105L12.2073 21.4261L11.2713 22.0806L11.2272 23.0768L11.0932 23.6863L12.4471 25.3811L12.5506 25.9618C12.5506 25.9618 13.0414 26.0949 13.1016 26.0949C13.1609 26.0949 14.202 26.8833 14.202 26.8833V29.9464L14.5734 30.0507L14.3207 31.4639L14.9455 32.2972L14.83 33.6976L15.6553 35.1485L16.7149 36.0741L17.78 36.0933L17.8843 35.7509L17.1014 35.0916L17.1464 34.7643L17.2867 34.3633L17.3164 33.9543L16.787 33.9382L16.52 33.603L16.9595 33.1803L17.0188 32.8611L16.528 32.7207L16.5569 32.4239L17.2562 32.3181L18.3198 31.8072L18.6767 31.1527L19.7923 29.725L19.5389 28.6086L19.8814 28.0142L20.9072 28.0455L21.5978 27.4985L21.8207 25.3442L22.5867 24.3713L22.7207 23.7465L22.0221 23.5227L21.5609 22.7664L19.9848 22.7503L18.7352 22.2739L18.6759 21.3828L18.2588 20.6538L17.1287 20.6369L16.4758 19.6119L15.896 19.3288L15.8663 19.6416L14.8108 19.7041L14.4242 19.1659L13.323 18.9422L12.4158 19.9905L10.9882 19.7482L10.8847 18.1393L9.84284 17.9613L10.2607 17.172L10.1412 16.7189L8.77209 17.634L7.91068 17.5289L7.6035 16.856L7.79118 16.1622L8.266 15.2872L9.3592 14.7338L11.4702 14.733L11.4646 15.377L12.2233 15.7299L12.1632 14.6295L12.7102 14.0793L13.8138 13.3542L13.8892 12.8441L14.9896 11.6988L16.1598 11.0507L16.0564 10.9657L16.8488 10.2198L17.1391 10.2968L17.2723 10.4636L17.5731 10.13L17.6468 10.0971L17.3172 10.0506L16.9827 9.93909V9.61826L17.16 9.47309H17.5506L17.7295 9.55169L17.8843 9.86449L18.0735 9.83562V9.80835L18.1281 9.8268L18.6767 9.74258L18.7545 9.47469L19.0673 9.5533V9.84364L18.7769 10.0434H18.7777L18.8203 10.3618L19.814 10.6682C19.814 10.6682 19.8148 10.6722 19.8164 10.6802L20.045 10.6609L20.0602 10.2302L19.2726 9.87171L19.2277 9.66478L19.8814 9.44181L19.9103 8.81621L19.2269 8.39994L19.182 7.34523L18.2452 7.80561H17.9035L17.9933 7.00276L16.7181 6.70198L16.1903 7.10061V8.31652L15.2415 8.6173L14.8613 9.40973L14.449 9.4763V8.4625L13.5572 8.33898L13.1112 8.04864L12.9316 7.39175L14.5268 6.45816L15.3072 6.22075L15.3859 6.7453L15.8206 6.72284L15.8543 6.45896L16.309 6.39399L16.317 6.30176L16.1213 6.22075L16.0764 5.94164L16.6355 5.89431L16.9731 5.54301L16.9916 5.51735L16.9956 5.51895L17.0982 5.41308L18.2733 5.2647L18.793 5.70583L17.4303 6.43169L19.1643 6.84074L19.3889 6.26085H20.1469L20.4147 5.75556L19.879 5.62161V4.98238L18.1987 4.23807L17.0389 4.37201L16.3844 4.71449L16.4293 5.54702L15.7452 5.44276L15.6401 4.98238L16.2954 4.38725L15.1059 4.3279L14.7643 4.43136L14.6159 4.83239L15.0618 4.90778L14.9728 5.35373L14.2148 5.39864L14.0961 5.6954L12.9965 5.72588C12.9965 5.72588 12.966 5.10188 12.9219 5.10188C12.8778 5.10188 13.7841 5.08664 13.7841 5.08664L14.4394 4.4466L14.0817 4.26774L13.6061 4.72973L12.8169 4.68481L12.3412 4.03033H11.3299L10.2743 4.81876H11.2416L11.3299 5.10188L11.0788 5.33528L12.1496 5.36496L12.3132 5.75155L11.1077 5.70663L11.0491 5.40907L10.2912 5.24545L9.88936 5.02248L8.98704 5.0297C11.941 2.87778 15.5735 1.60411 19.4996 1.60411C24.0248 1.60411 28.1594 3.29565 31.3139 6.07478L31.1013 6.45495L30.276 6.77818L29.9279 7.15595L30.0081 7.59628L30.434 7.65563L30.6907 8.29728L31.4254 8.00132L31.5465 8.85952H31.3251L30.722 8.77049L30.0531 8.88278L29.4058 9.79712L28.4802 9.94229L28.3463 10.7347L28.7369 10.827L28.6238 11.3363L27.7046 11.1518L26.8617 11.3363L26.6828 11.8055L26.8288 12.7904L27.3237 13.0222L28.1538 13.0174L28.7144 12.9668L28.8853 12.5209L29.7611 11.3828L30.3378 11.5007L30.9056 10.9874L31.0115 11.3884L32.4087 12.3308L32.2379 12.5602L31.6082 12.5265L31.8505 12.8698L32.2379 12.9548L32.6918 12.7655L32.6822 12.2185L32.8835 12.1175L32.7215 11.9458L31.7895 11.4261L31.5441 10.7355H32.3189L32.5667 10.981L33.234 11.556L33.2621 12.2514L33.9535 12.9877L34.2109 11.9787L34.6897 11.7172L34.7796 12.5426L35.2472 13.0559L36.18 13.0398C36.3604 13.5042 36.5224 13.9766 36.6644 14.4587L36.5674 14.5485ZM10.6361 8.85952L11.1045 8.63654L11.528 8.7376L11.382 9.30626L10.9248 9.45144L10.6361 8.85952ZM13.1216 10.1981V10.5663H12.0517L11.6507 10.4548L11.7509 10.1981L12.265 9.9856H12.9676V10.1981H13.1216ZM13.6141 10.7115V11.0684L13.3462 11.2408L13.0126 11.3026C13.0126 11.3026 13.0126 10.7676 13.0126 10.7115H13.6141ZM13.3125 10.5663V10.142L13.6807 10.4773L13.3125 10.5663ZM13.4802 11.4245V11.7718L13.2243 12.0284H12.6557L12.7447 11.6386L13.0134 11.6154L13.0687 11.4814L13.4802 11.4245ZM12.0637 10.7115H12.6548L11.8969 11.771L11.5841 11.6034L11.6515 11.1574L12.0637 10.7115ZM14.4843 11.3026V11.6491H13.9157L13.7601 11.4245V11.1021H13.805L14.4843 11.3026ZM13.959 10.8262L14.121 10.6561L14.3945 10.8262L14.1755 11.0066L13.959 10.8262ZM36.8577 15.4516L36.9138 15.3859C36.9371 15.4869 36.962 15.588 36.9844 15.6906L36.8577 15.4516Z" fill="black"/>
<path id="Vector_6" d="M3.03345 11.9373V12.4956C3.22835 12.04 3.4433 11.5957 3.67349 11.1602L3.03345 11.9373Z" fill="black"/>
</g>
</g>
</g>
<defs>
<clipPath id="clip0_0_2893">
<rect width="39" height="39" fill="white"/>
</clipPath>
</defs>
</svg>
