<svg width="71" height="29" viewBox="0 0 71 29" fill="none" xmlns="http://www.w3.org/2000/svg">
<path id="XMLID_34_" d="M12.9053 3.73882C12.0775 4.71836 10.7531 5.49096 9.42863 5.38059C9.26308 4.05614 9.91151 2.64891 10.6703 1.77973C11.4981 0.772597 12.9467 0.0551855 14.1194 0C14.2574 1.37964 13.7193 2.73168 12.9053 3.73882ZM14.1056 5.64272C12.1879 5.53235 10.5461 6.73264 9.63558 6.73264C8.71122 6.73264 7.31779 5.69791 5.80019 5.7255C3.8273 5.75309 1.99238 6.8706 0.985248 8.65033C-1.08421 12.2098 0.447189 17.48 2.44766 20.3773C3.42721 21.8121 4.5999 23.3849 6.14509 23.3297C7.60751 23.2745 8.18696 22.3777 9.9529 22.3777C11.7326 22.3777 12.2431 23.3297 13.7883 23.3021C15.3887 23.2745 16.3958 21.8673 17.3754 20.4324C18.4929 18.8045 18.9481 17.2179 18.9757 17.1351C18.9481 17.1075 15.8853 15.9348 15.8577 12.403C15.8302 9.45052 18.2721 8.04329 18.3825 7.96051C17.0028 5.91865 14.8506 5.69791 14.1056 5.64272ZM25.1841 1.64177V23.1503H28.5228V15.7969H33.1446C37.3663 15.7969 40.3325 12.8996 40.3325 8.70552C40.3325 4.51142 37.4215 1.64177 33.255 1.64177H25.1841ZM28.5228 4.45623H32.372C35.2693 4.45623 36.9248 6.00143 36.9248 8.71932C36.9248 11.4372 35.2693 12.9962 32.3582 12.9962H28.5228V4.45623ZM46.4305 23.3159C48.5276 23.3159 50.4729 22.2536 51.3558 20.5704H51.4248V23.1503H54.5152V12.4443C54.5152 9.34015 52.0319 7.33968 48.2103 7.33968C44.6646 7.33968 42.0433 9.36774 41.9467 12.1546H44.9543C45.2027 10.8302 46.4305 9.96099 48.1137 9.96099C50.1556 9.96099 51.3007 10.9129 51.3007 12.6651V13.8516L47.1342 14.0999C43.2574 14.3344 41.1603 15.921 41.1603 18.6803C41.1603 21.4672 43.3264 23.3159 46.4305 23.3159ZM47.3273 20.7636C45.5476 20.7636 44.4163 19.9082 44.4163 18.5975C44.4163 17.2455 45.5062 16.4591 47.5894 16.3349L51.3007 16.1004V17.3145C51.3007 19.3287 49.5899 20.7636 47.3273 20.7636ZM58.6403 29C61.8963 29 63.4277 27.7583 64.7659 23.9919L70.6294 7.54662H67.2355L63.3035 20.2531H63.2345L59.3026 7.54662H55.8121L61.4686 23.2055L61.1651 24.1575C60.6546 25.7716 59.8268 26.3925 58.3506 26.3925C58.0885 26.3925 57.578 26.3649 57.3711 26.3373V28.9172C57.5642 28.9724 58.392 29 58.6403 29Z" fill="white"/>
</svg>
