<svg width="25" height="25" viewBox="0 0 25 25" fill="none" xmlns="http://www.w3.org/2000/svg">
<path d="M1.71314 11.834C2.01016 11.5369 2.30719 11.4379 2.70322 11.4379L22.5047 11.4379C23.2968 11.4379 23.8908 12.032 23.8908 12.824C23.8908 13.6161 23.2968 14.2101 22.5047 14.2101L2.70322 14.2101C1.91116 14.2101 1.31711 13.6161 1.31711 12.824C1.31711 12.428 1.41612 12.131 1.71314 11.834Z" fill="black"/>
<path d="M1.71282 11.834L10.6235 2.92333C11.2175 2.32929 12.0096 2.32929 12.6036 2.92333C13.1977 3.51738 13.1977 4.30944 12.6036 4.90348L4.68305 12.8241L12.6036 20.7447C13.1977 21.3387 13.1977 22.1308 12.6036 22.7248C12.0096 23.3189 11.2175 23.3189 10.6235 22.7248L1.71282 13.8142C1.11877 13.2201 1.11877 12.4281 1.71282 11.834Z" fill="black"/>
</svg>
