<svg width="56" height="56" viewBox="0 0 56 56" fill="none" xmlns="http://www.w3.org/2000/svg">
<path d="M28 0C12.5603 0 0 12.5603 0 28C0 43.4397 12.5603 56 28 56C43.4397 56 56 43.4397 56 28C56 12.5603 43.4397 0 28 0ZM36.6497 29.6497L24.983 41.3163C24.528 41.7713 23.9307 42 23.3333 42C22.736 42 22.1386 41.7713 21.6836 41.3163C20.7713 40.404 20.7713 38.9293 21.6836 38.017L31.7007 28L21.6837 17.983C20.7714 17.0707 20.7714 15.596 21.6837 14.6837C22.596 13.7714 24.0707 13.7714 24.983 14.6837L36.6497 26.3504C37.562 27.2627 37.562 28.7373 36.6497 29.6497Z" fill="black"/>
</svg>
