<svg width="31" height="31" viewBox="0 0 31 31" fill="none" xmlns="http://www.w3.org/2000/svg">
<path d="M27.5176 12.6713H26.5011V12.6189H15.1437V17.6666H22.2755C21.2351 20.605 18.4393 22.7143 15.1437 22.7143C10.9623 22.7143 7.57214 19.3242 7.57214 15.1427C7.57214 10.9613 10.9623 7.57116 15.1437 7.57116C17.0738 7.57116 18.8298 8.2993 20.1668 9.48867L23.7362 5.91929C21.4824 3.81881 18.4677 2.52344 15.1437 2.52344C8.17471 2.52344 2.52441 8.17373 2.52441 15.1427C2.52441 22.1118 8.17471 27.7621 15.1437 27.7621C22.1127 27.7621 27.763 22.1118 27.763 15.1427C27.763 14.2966 27.676 13.4707 27.5176 12.6713Z" fill="#FFC107"/>
<path d="M3.97852 9.26909L8.12459 12.3097C9.24645 9.5322 11.9634 7.57116 15.1428 7.57116C17.0729 7.57116 18.8289 8.2993 20.1659 9.48867L23.7353 5.91929C21.4815 3.81881 18.4667 2.52344 15.1428 2.52344C10.2957 2.52344 6.09225 5.25994 3.97852 9.26909Z" fill="#FF3D00"/>
<path d="M15.1435 27.7625C18.4031 27.7625 21.3648 26.5151 23.6041 24.4866L19.6985 21.1816C18.3889 22.1775 16.7887 22.7161 15.1435 22.7148C11.8612 22.7148 9.07426 20.6219 8.02434 17.7012L3.90918 20.8718C5.99768 24.9585 10.239 27.7625 15.1435 27.7625Z" fill="#4CAF50"/>
<path d="M27.5174 12.6715H26.5009V12.6191H15.1436V17.6669H22.2754C21.7777 19.0653 20.8811 20.2874 19.6966 21.182L19.6985 21.1807L23.6042 24.4857C23.3278 24.7368 27.7629 21.4527 27.7629 15.143C27.7629 14.2969 27.6758 13.4709 27.5174 12.6715Z" fill="#1976D2"/>
</svg>
