<svg width="80" height="32" viewBox="0 0 80 32" fill="none" xmlns="http://www.w3.org/2000/svg">
<g id="7123945_logo_pay_google_gpay_icon 1" clip-path="url(#clip0_588_2164)">
<path id="Vector" d="M37.8371 15.634V25.0142H34.8828V1.84921H42.7182C43.6535 1.82953 44.5834 1.99662 45.4542 2.34082C46.325 2.68502 47.1196 3.19952 47.792 3.85464C48.4711 4.46999 49.0117 5.22464 49.3772 6.06788C49.7428 6.91113 49.9249 7.82342 49.9114 8.74345C49.9308 9.66841 49.7515 10.5867 49.3857 11.4353C49.0198 12.2839 48.4762 13.0428 47.792 13.66C46.4218 14.976 44.7306 15.6334 42.7182 15.6322H37.8371V15.634ZM37.8371 4.70117V12.7876H42.7916C43.3348 12.8038 43.8753 12.7057 44.3786 12.4994C44.882 12.2932 45.3371 11.9834 45.7148 11.5899C46.0905 11.2219 46.3891 10.7819 46.5931 10.2957C46.797 9.80944 46.9021 9.28698 46.9021 8.75916C46.9021 8.23135 46.797 7.70888 46.5931 7.22268C46.3891 6.73647 46.0905 6.29639 45.7148 5.92846C45.3418 5.52665 44.8883 5.20927 44.3844 4.99737C43.8804 4.78546 43.3375 4.68387 42.7916 4.69933H37.8371V4.70117Z" fill="white"/>
<path id="Vector_2" d="M56.7195 8.64648C58.9032 8.64648 60.6268 9.23425 61.8905 10.4098C63.1542 11.5853 63.7854 13.1971 63.7842 15.245V25.0134H60.9583V22.8139H60.8299C59.6066 24.6252 57.9795 25.5309 55.9488 25.5309C54.2154 25.5309 52.7651 25.0134 51.5981 23.9783C51.038 23.5033 50.5902 22.9083 50.2874 22.2368C49.9845 21.5653 49.8342 20.8342 49.8475 20.0968C49.8475 18.4568 50.4628 17.1525 51.6935 16.1839C52.9241 15.2154 54.5671 14.7299 56.6223 14.7275C58.3765 14.7275 59.8213 15.0509 60.9565 15.6978V15.0177C60.9599 14.5149 60.8521 14.0178 60.641 13.5622C60.43 13.1067 60.1209 12.7041 59.7362 12.3838C58.955 11.6738 57.9368 11.2864 56.8847 11.2988C55.2344 11.2988 53.9285 12 52.967 13.4022L50.365 11.7517C51.7962 9.68155 53.9144 8.64648 56.7195 8.64648ZM52.8972 20.1615C52.8953 20.5403 52.9831 20.914 53.1536 21.2516C53.324 21.5891 53.5721 21.8808 53.8771 22.1023C54.5305 22.62 55.3415 22.8942 56.1727 22.8786C57.4194 22.8765 58.6144 22.3766 59.4959 21.4886C60.4745 20.5608 60.9639 19.4721 60.9639 18.2226C60.0427 17.4833 58.7582 17.1136 57.1104 17.1136C55.9103 17.1136 54.9096 17.4051 54.1083 17.9879C53.2991 18.5794 52.8972 19.2984 52.8972 20.1615Z" fill="white"/>
<path id="Vector_3" d="M80.0052 9.16406L70.1403 32.0001H67.0905L70.7513 24.0098L64.2646 9.16406H67.4759L72.1643 20.5497H72.2285L76.7884 9.16406H80.0052Z" fill="white"/>
<path id="Vector_4" d="M25.899 13.6102C25.9001 12.7034 25.824 11.7981 25.6715 10.9043H13.2119V16.0297H20.3482C20.2022 16.8483 19.8931 17.6286 19.4396 18.3237C18.9861 19.0187 18.3976 19.6141 17.7095 20.0738V23.4008H21.9685C24.4622 21.0849 25.899 17.6599 25.899 13.6102Z" fill="#4285F4"/>
<path id="Vector_5" d="M13.2117 26.6164C16.7771 26.6164 19.7791 25.4372 21.9683 23.404L17.7093 20.077C16.5239 20.8866 14.9972 21.3487 13.2117 21.3487C9.7656 21.3487 6.84063 19.0087 5.79468 15.8555H1.40723V19.2841C2.50687 21.4882 4.19306 23.341 6.27754 24.6358C8.36203 25.9306 10.7628 26.6163 13.2117 26.6164Z" fill="#34A853"/>
<path id="Vector_6" d="M5.79527 15.8546C5.24232 14.2023 5.24232 12.413 5.79527 10.7607V7.33203H1.40781C0.482749 9.18618 0.000976562 11.2325 0.000976562 13.3077C0.000976562 15.3828 0.482749 17.4291 1.40781 19.2833L5.79527 15.8546Z" fill="#FBBC04"/>
<path id="Vector_7" d="M13.2117 5.26859C15.0959 5.23759 16.9164 5.95464 18.2799 7.26478L22.0508 3.46648C19.6597 1.20427 16.492 -0.0377181 13.2117 0.000873124C10.7628 0.000985548 8.36203 0.686702 6.27754 1.98147C4.19306 3.27623 2.50687 5.12908 1.40723 7.33317L5.79468 10.7618C6.84063 7.60857 9.7656 5.26859 13.2117 5.26859Z" fill="#EA4335"/>
</g>
<defs>
<clipPath id="clip0_588_2164">
<rect width="80" height="32" fill="white"/>
</clipPath>
</defs>
</svg>
