<svg width="25" height="20" viewBox="0 0 25 20" fill="none" xmlns="http://www.w3.org/2000/svg">
<g id="Group">
<path id="Vector" d="M12.2177 17.3122C12.2177 17.7424 11.9691 18.1333 11.5801 18.3157C11.4297 18.3868 11.2685 18.4212 11.1084 18.4212C10.8549 18.4212 10.6037 18.3341 10.4008 18.1658L4.33801 13.1419H1.10898C0.496613 13.1425 0 12.6456 0 12.0332V7.6149C0 7.00227 0.496613 6.50566 1.10898 6.50566H4.33827L10.401 1.48178C10.7323 1.20723 11.1916 1.1487 11.5804 1.33243C11.9691 1.51486 12.2179 1.90595 12.2179 2.3359L12.2177 17.3122ZM16.4796 15.5793C16.4525 15.5812 16.4265 15.5822 16.3998 15.5822C16.1068 15.5822 15.8244 15.4665 15.6157 15.2575L15.4674 15.1087C15.0784 14.7205 15.0328 14.1055 15.3603 13.664C16.1908 12.5443 16.6292 11.2169 16.6292 9.82446C16.6292 8.32675 16.1315 6.92195 15.1897 5.76179C14.8312 5.32082 14.8643 4.68037 15.2661 4.27877L15.4142 4.13047C15.6357 3.90894 15.9326 3.7882 16.2538 3.80736C16.5667 3.82311 16.8588 3.97036 17.0573 4.21289C18.3636 5.8114 19.0537 7.75218 19.0537 9.82472C19.0537 11.755 18.4434 13.5924 17.2885 15.1373C17.0956 15.3948 16.8006 15.5565 16.4796 15.5793ZM21.0646 19.0065C20.864 19.2436 20.574 19.3858 20.2635 19.399C20.2483 19.3995 20.2328 19.4 20.217 19.4C19.9233 19.4 19.6414 19.284 19.4327 19.0753L19.2871 18.9296C18.8799 18.5228 18.8524 17.8721 19.2225 17.4317C21.011 15.3045 21.9964 12.6031 21.9964 9.82446C21.9964 6.93429 20.9415 4.152 19.0267 1.99021C18.6385 1.55134 18.6581 0.887004 19.0713 0.472285L19.2167 0.326609C19.4325 0.1098 19.7128 -0.00962861 20.0343 0.000608123C20.3396 0.00926997 20.6283 0.144185 20.8312 0.372543C23.1458 2.97845 24.4206 6.33557 24.4206 9.82446C24.4212 13.1813 23.2292 16.4424 21.0646 19.0065Z" fill="white" fill-opacity="0.72"/>
</g>
</svg>
