<svg width="22" height="21" viewBox="0 0 22 21" fill="none" xmlns="http://www.w3.org/2000/svg">
<g id="Group 71">
<path id="Vector" d="M13.5225 11.2829C13.0545 11.2829 12.6763 11.6718 12.6763 12.1508V15.6226C12.6763 16.1008 12.2972 16.4904 11.83 16.4904H9.2913V3.47163C9.2913 2.73042 8.83095 2.0682 8.1388 1.82171L7.88825 1.73573H11.83C12.2972 1.73573 12.6763 2.12541 12.6763 2.60376V5.20752C12.6763 5.68651 13.0545 6.07539 13.5225 6.07539C13.9904 6.07539 14.3687 5.68651 14.3687 5.20752V2.60376C14.3687 1.16823 13.2296 0 11.83 0H2.73311C2.70088 0 2.67392 0.0147797 2.64262 0.0190705C2.60187 0.0155743 2.56298 0 2.5216 0C1.58819 0 0.829102 0.778395 0.829102 1.73573V17.3583C0.829102 18.0995 1.28945 18.7617 1.98161 19.0082L7.0743 20.7494C7.24691 20.804 7.4186 20.8301 7.59896 20.8301C8.53237 20.8301 9.2913 20.0515 9.2913 19.0942V18.2263H11.83C13.2296 18.2263 14.3687 17.0581 14.3687 15.6226V12.1508C14.3687 11.6718 13.9904 11.2829 13.5225 11.2829Z" fill="#FF7373"/>
<path id="Vector_2" d="M21.3816 8.19012L17.5943 4.4409C17.3237 4.17282 16.9164 4.09216 16.5624 4.23735C16.2093 4.38272 15.9782 4.72478 15.9782 5.10356V7.91552H12.1911C11.6684 7.91552 11.2441 8.33532 11.2441 8.85278C11.2441 9.37024 11.6684 9.79004 12.1911 9.79004H15.9782V12.602C15.9782 12.9808 16.2093 13.3228 16.5624 13.4682C16.9164 13.6134 17.3237 13.5327 17.5943 13.2648L21.3816 9.51544C21.7517 9.14901 21.7517 8.55655 21.3816 8.19012Z" fill="#FF7373"/>
</g>
</svg>
