<svg width="31" height="32" viewBox="0 0 31 32" fill="none" xmlns="http://www.w3.org/2000/svg">
<path d="M23.943 16.4149C23.9859 20.9896 27.9922 22.5119 28.0365 22.5313C28.0025 22.6386 27.3963 24.7007 25.9259 26.8306C24.6547 28.6721 23.3352 30.5068 21.2568 30.5448C19.2148 30.5821 18.558 29.3446 16.2232 29.3446C13.8891 29.3446 13.1595 30.5068 11.2263 30.5821C9.22013 30.6574 7.69243 28.5909 6.41075 26.7561C3.7915 23.0032 1.78992 16.1511 4.47755 11.5258C5.81269 9.22889 8.19882 7.77447 10.7886 7.73716C12.7585 7.69995 14.618 9.05073 15.8223 9.05073C17.0258 9.05073 19.2854 7.42632 21.6609 7.66486C22.6552 7.70592 25.4467 8.06291 27.2392 10.6633C27.0946 10.752 23.9084 12.5905 23.943 16.415M20.105 5.18196C21.1702 3.90416 21.887 2.12544 21.6914 0.355469C20.1562 0.416618 18.2998 1.36944 17.1985 2.64646C16.2117 3.77744 15.3474 5.58751 15.5806 7.32238C17.2919 7.45363 19.0399 6.46052 20.105 5.18196Z" fill="white"/>
</svg>
