<svg width="141" height="31" viewBox="0 0 141 31" fill="none" xmlns="http://www.w3.org/2000/svg">
<g id="MoonPay 1" clip-path="url(#clip0_588_2176)">
<g id="MP_LOGO">
<path id="Vector" d="M129.008 23.4409L123.922 11.7696H127.332L130.8 20.1285L134.814 11.7696H138.165L130.255 27.8444H126.864L129.008 23.4409ZM116.654 21.0248C116.947 20.9469 117.239 20.8494 117.512 20.6936C117.765 20.5572 118.018 20.3818 118.233 20.187C118.447 19.9921 118.642 19.7583 118.798 19.505C118.954 19.2322 119.09 18.9399 119.168 18.6477C119.265 18.3164 119.304 17.9852 119.304 17.6345C119.304 17.2837 119.265 16.9525 119.168 16.6213C119.09 16.329 118.954 16.0367 118.798 15.7639C118.642 15.5106 118.447 15.2768 118.233 15.082C118.018 14.8871 117.765 14.7118 117.512 14.5754C117.239 14.439 116.947 14.3416 116.654 14.2636C116.343 14.1857 116.011 14.1467 115.7 14.1662C115.388 14.1662 115.057 14.2052 114.745 14.2636C114.453 14.3221 114.16 14.439 113.888 14.5754C113.615 14.7118 113.381 14.8871 113.167 15.082C112.952 15.2768 112.758 15.5106 112.602 15.7639C112.446 16.0367 112.309 16.329 112.231 16.6213C112.134 16.9525 112.095 17.3032 112.095 17.6345C112.095 17.9657 112.134 18.3164 112.231 18.6477C112.309 18.9399 112.446 19.2322 112.602 19.505C112.758 19.7583 112.952 19.9921 113.167 20.187C113.381 20.3818 113.634 20.5572 113.888 20.6936C114.16 20.8299 114.433 20.9469 114.745 21.0248C115.057 21.1027 115.368 21.1417 115.7 21.1222C116.011 21.1417 116.323 21.1027 116.654 21.0248ZM113.206 23.6357C112.68 23.4993 112.173 23.3045 111.705 23.0317C110.79 22.5251 110.03 21.7652 109.523 20.8494C109.25 20.3818 109.055 19.8752 108.919 19.3491C108.646 18.219 108.646 17.0499 108.919 15.9198C109.055 15.3937 109.25 14.8871 109.523 14.4195C110.03 13.5037 110.79 12.7633 111.705 12.2372C112.173 11.9839 112.68 11.7696 113.206 11.6332C113.771 11.4968 114.336 11.4189 114.92 11.4189C115.232 11.4189 115.544 11.4384 115.856 11.4773C116.148 11.5163 116.421 11.5748 116.693 11.6527C116.947 11.7306 117.2 11.8086 117.434 11.9255C117.668 12.0229 117.882 12.1398 118.096 12.2762C118.291 12.3931 118.486 12.549 118.642 12.7049C118.798 12.8607 118.954 13.0166 119.071 13.192V11.7891H122.305V23.5188H119.071V22.1159C118.642 22.6615 118.077 23.0902 117.434 23.3824C117.064 23.5578 116.674 23.6747 116.265 23.7332C115.817 23.8111 115.349 23.8695 114.901 23.8501C114.336 23.8501 113.771 23.7916 113.206 23.6357ZM101.476 14.7507C101.944 14.7507 102.411 14.7118 102.859 14.5949C103.21 14.4974 103.541 14.3416 103.814 14.1078C104.067 13.8934 104.262 13.6206 104.379 13.3089C104.496 12.9582 104.574 12.588 104.554 12.2178C104.554 11.8475 104.496 11.4773 104.379 11.1266C104.262 10.8149 104.067 10.5616 103.814 10.3472C103.541 10.1329 103.21 9.95754 102.859 9.8796C102.411 9.76269 101.944 9.70424 101.476 9.72372H98.2999V14.7507H101.476ZM94.9486 6.95691H101.807C102.762 6.93742 103.697 7.07382 104.593 7.3466C105.314 7.56093 105.977 7.95062 106.542 8.43774C107.049 8.90537 107.438 9.47042 107.692 10.1134C107.945 10.7954 108.081 11.5163 108.062 12.2372C108.062 12.9582 107.945 13.6791 107.692 14.3416C107.438 14.9846 107.049 15.5496 106.542 16.0172C105.977 16.5238 105.314 16.8941 104.593 17.1084C103.697 17.3812 102.742 17.5176 101.807 17.4981H98.3194V23.5188H94.9681L94.9486 6.95691ZM80.5884 11.7696H83.8034V13.1725C83.9982 12.8997 84.2321 12.6464 84.5048 12.4516C84.7776 12.2372 85.0894 12.0424 85.4206 11.906C85.7713 11.7501 86.161 11.6332 86.5507 11.5553C86.9794 11.4773 87.408 11.4384 87.8562 11.4384C88.5381 11.4189 89.2201 11.5358 89.8436 11.7696C90.4087 11.9839 90.9347 12.3152 91.3634 12.7438C91.7921 13.192 92.1038 13.7376 92.2987 14.3221C92.5325 15.004 92.6299 15.7055 92.6299 16.4264V23.5188H89.415V17.2643C89.415 16.8161 89.3565 16.3485 89.2201 15.9198C89.1032 15.5691 88.9278 15.2379 88.6745 14.9456C88.4407 14.6923 88.129 14.478 87.7977 14.3611C87.0378 14.1078 86.2 14.1078 85.4206 14.3611C85.0894 14.478 84.7776 14.6923 84.5438 14.9456C84.2905 15.2379 84.1151 15.5691 83.9982 15.9198C83.8618 16.3485 83.8034 16.8161 83.8034 17.2643V23.5188H80.6079L80.5884 11.7696ZM72.6777 20.9858C72.9894 20.9079 73.2817 20.8105 73.5545 20.6546C73.8273 20.5182 74.0611 20.3428 74.2754 20.1285C74.4898 19.9142 74.6651 19.6804 74.821 19.4271C74.9769 19.1543 75.0938 18.8815 75.1522 18.5892C75.3081 17.9462 75.3081 17.2837 75.1522 16.6408C75.0158 16.0562 74.7041 15.5106 74.2754 15.1015C74.0611 14.8871 73.8078 14.7118 73.5545 14.5754C73.2817 14.4195 72.97 14.3221 72.6777 14.2441C72.3464 14.1662 71.9957 14.1272 71.6645 14.1272C71.3332 14.1272 70.9825 14.1662 70.6513 14.2441C70.3395 14.3221 70.0473 14.4195 69.7745 14.5754C69.5017 14.7118 69.2679 14.8871 69.0535 15.1015C68.8392 15.3158 68.6639 15.5496 68.508 15.8029C68.0403 16.6602 67.9234 17.654 68.1767 18.6087C68.2547 18.901 68.3716 19.1932 68.508 19.4465C68.6444 19.6998 68.8392 19.9337 69.0535 20.148C69.2679 20.3623 69.5017 20.5377 69.7745 20.6741C70.0473 20.8105 70.3395 20.9274 70.6513 21.0053C70.9825 21.0832 71.3138 21.1222 71.6645 21.1222C72.0152 21.1222 72.3464 21.0832 72.6777 20.9858ZM69.7745 23.6357C69.1899 23.4993 68.6249 23.3045 68.0988 23.0317C67.5922 22.7784 67.1441 22.4667 66.7154 22.0964C66.3062 21.7262 65.9555 21.3171 65.6827 20.8494C65.3904 20.3818 65.1761 19.8752 65.0202 19.3491C64.7085 18.219 64.7085 17.0304 65.0202 15.9198C65.1761 15.3937 65.3904 14.8871 65.6827 14.4195C66.2673 13.4843 67.1051 12.7244 68.0988 12.2372C68.6249 11.9645 69.1899 11.7696 69.7745 11.6332C71.0215 11.3409 72.327 11.3409 73.574 11.6332C74.1585 11.7696 74.7041 11.9645 75.2302 12.2372C75.7368 12.4905 76.1849 12.8023 76.6136 13.192C77.0228 13.5622 77.3735 13.9714 77.6657 14.439C77.958 14.9066 78.1918 15.4132 78.3282 15.9393C78.64 17.0694 78.64 18.258 78.3282 19.3686C78.0359 20.4403 77.4319 21.395 76.6136 22.1159C76.2044 22.4861 75.7368 22.7979 75.2302 23.0512C74.7041 23.324 74.139 23.5188 73.574 23.6552C72.327 23.928 71.0215 23.928 69.7745 23.6357ZM57.2654 20.9858C57.5771 20.9079 57.8694 20.8105 58.1422 20.6546C58.415 20.5182 58.6488 20.3428 58.8631 20.1285C59.0774 19.9142 59.2528 19.6804 59.4087 19.4271C59.5645 19.1543 59.6815 18.8815 59.7399 18.5892C59.8958 17.9462 59.8958 17.2837 59.7399 16.6408C59.6035 16.0562 59.2918 15.5106 58.8631 15.1015C58.6488 14.8871 58.3955 14.7118 58.1422 14.5754C57.8694 14.4195 57.5576 14.3221 57.2654 14.2441C56.9341 14.1662 56.5834 14.1272 56.2522 14.1272C55.9209 14.1272 55.5702 14.1662 55.239 14.2441C54.9272 14.3221 54.6349 14.4195 54.3622 14.5754C54.1089 14.7118 53.8556 14.8871 53.6412 15.1015C53.4269 15.2963 53.2515 15.5496 53.0957 15.8029C52.9593 16.0757 52.8424 16.3485 52.7644 16.6408C52.6865 16.9525 52.628 17.2837 52.6475 17.615C52.6475 17.9462 52.6865 18.2775 52.7644 18.5892C52.8424 18.8815 52.9593 19.1738 53.0957 19.4271C53.2321 19.6804 53.4269 19.9142 53.6412 20.1285C53.8556 20.3428 54.0894 20.5182 54.3622 20.6546C54.6349 20.791 54.9272 20.9079 55.239 20.9858C55.5702 21.0638 55.9014 21.1027 56.2522 21.1027C56.5834 21.1027 56.9341 21.0638 57.2654 20.9858ZM54.3427 23.6357C53.7581 23.4993 53.1931 23.3045 52.667 23.0317C52.1604 22.7784 51.7123 22.4667 51.2836 22.0964C50.8744 21.7262 50.5237 21.3171 50.2509 20.8494C49.9586 20.3818 49.7443 19.8752 49.5884 19.3491C49.2767 18.219 49.2767 17.0304 49.5884 15.9198C49.7443 15.3937 49.9586 14.8871 50.2509 14.4195C50.5432 13.9519 50.8939 13.5427 51.2836 13.1725C51.6928 12.8023 52.1604 12.4711 52.667 12.2178C53.1931 11.945 53.7581 11.7501 54.3427 11.6137C55.5897 11.3409 56.8952 11.3409 58.1422 11.6137C58.7267 11.7501 59.2723 11.945 59.7984 12.2178C60.305 12.4711 60.7531 12.7828 61.1818 13.1725C61.5909 13.5427 61.9417 13.9519 62.2339 14.4195C62.5262 14.8871 62.76 15.3937 62.8964 15.9198C63.2082 17.0499 63.2082 18.2385 62.8964 19.3491C62.6041 20.4208 62.0001 21.3755 61.1818 22.0964C60.7726 22.4667 60.305 22.7784 59.7984 23.0317C59.2723 23.3045 58.7072 23.4993 58.1422 23.6357C56.9146 23.928 55.6092 23.928 54.3427 23.6357ZM29.0127 6.95691H32.403L38.1705 15.7834L43.9769 6.95691H47.3477V23.5188H43.9964V12.1593L39.2031 19.4855H37.1573L32.364 12.1593V23.5188H29.0127V6.95691Z" fill="white"/>
</g>
<path id="MP_EM_LOGO" d="M21.2963 9.91745C23.1668 9.91745 24.6671 8.39765 24.6671 6.54662C24.6671 4.6761 23.1473 3.17578 21.2963 3.17578C19.4257 3.17578 17.9254 4.69558 17.9254 6.54662C17.9254 8.39765 19.4257 9.91745 21.2963 9.91745ZM10.9305 25.1349C6.37107 25.1349 2.68848 21.4523 2.68848 16.8929C2.68848 12.3335 6.37107 8.65095 10.9305 8.65095C15.4899 8.65095 19.1724 12.3335 19.1724 16.8929C19.1724 21.4523 15.4899 25.1349 10.9305 25.1349Z" fill="#7D00FF"/>
</g>
<defs>
<clipPath id="clip0_588_2176">
<rect width="140.854" height="31" fill="white"/>
</clipPath>
</defs>
</svg>
