<svg width="42" height="31" viewBox="0 0 42 31" fill="none" xmlns="http://www.w3.org/2000/svg">
<path d="M3.70833 28.4388C1.39062 25.9361 0 23.206 0 18.6558C0 10.693 5.79426 3.64016 13.9062 0L15.9922 2.95763C8.34374 7.05281 6.72134 12.2855 6.2578 15.6982C7.41666 15.0157 9.03905 14.7882 10.6614 15.0157C14.8333 15.4707 18.0781 18.6558 18.0781 22.9785C18.0781 25.0261 17.151 27.0737 15.7604 28.6663C14.138 30.2588 12.2838 30.9414 9.96613 30.9414C7.41666 30.9414 5.09895 29.8038 3.70833 28.4388ZM26.8854 28.4388C24.5677 25.9361 23.177 23.206 23.177 18.6558C23.177 10.693 28.9713 3.64016 37.0833 0L39.1692 2.95763C31.5208 7.05281 29.8984 12.2855 29.4349 15.6982C30.5937 15.0157 32.2161 14.7882 33.8385 15.0157C38.0104 15.4707 41.2551 18.6558 41.2551 22.9785C41.2551 25.0261 40.3281 27.0737 38.9374 28.6663C37.5468 30.2588 35.4609 30.9414 33.1432 30.9414C30.5937 30.9414 28.276 29.8038 26.8854 28.4388Z" fill="#1D1C1C"/>
</svg>
