<svg width="17" height="17" viewBox="0 0 17 17" fill="none" xmlns="http://www.w3.org/2000/svg">
<path d="M13.6399 14.4741C13.4256 14.4741 13.2113 14.3915 13.0487 14.2281C12.7236 13.9013 12.7252 13.3735 13.0521 13.0484C14.3127 11.7961 15.0072 10.1236 15.0072 8.33772C15.0072 6.55185 14.3127 4.87936 13.0521 3.62708C12.7252 3.30192 12.7236 2.775 13.0487 2.44734C13.3731 2.12051 13.9 2.11884 14.2276 2.444C15.8059 4.01227 16.6747 6.10496 16.6747 8.33772C16.6747 10.5705 15.8059 12.6632 14.2276 14.2314C14.0651 14.3932 13.8525 14.4741 13.6399 14.4741Z" fill="white"/>
<path d="M11.2804 12.1146C11.0653 12.1146 10.8502 12.032 10.6876 11.867C10.3633 11.5393 10.3666 11.0115 10.6943 10.688C11.3154 10.0736 11.6722 9.21649 11.6722 8.33772C11.6722 7.45896 11.3154 6.60188 10.6943 5.98741C10.3666 5.66392 10.3641 5.13616 10.6876 4.8085C11.0111 4.48167 11.5388 4.47834 11.8665 4.80183C12.8028 5.72728 13.3397 7.01624 13.3397 8.33772C13.3397 9.6592 12.8028 10.9482 11.8665 11.8736C11.7039 12.0345 11.4921 12.1146 11.2804 12.1146Z" fill="white"/>
<path d="M8.33741 16.6752C8.12064 16.6752 7.9072 16.5901 7.74796 16.4309L3.82354 12.5065H1.66748C0.747866 12.5065 0 11.7586 0 10.839V5.83653C0 4.91691 0.747866 4.16905 1.66748 4.16905H3.82354L7.74796 0.244628C7.98641 0.00534379 8.34492 -0.0655242 8.65674 0.0637057C8.96856 0.192936 9.17115 0.497251 9.17115 0.834083V15.8414C9.17115 16.1783 8.96856 16.4826 8.65674 16.6118C8.55335 16.6543 8.44497 16.6752 8.33741 16.6752Z" fill="white"/>
</svg>
