<svg width="21" height="21" viewBox="0 0 21 21" fill="none" xmlns="http://www.w3.org/2000/svg">
<path d="M17.8828 2.46094H14.2248L13.8249 1.26172C13.5732 0.507076 12.8696 0 12.0741 0H8.92586C8.13036 0 7.42682 0.507076 7.17449 1.26172L6.77504 2.46094H3.11719C2.09943 2.46094 1.27148 3.28888 1.27148 4.30664V5.53711C1.27148 6.2224 1.8884 6.15234 2.55047 6.15234C8.23335 6.15234 13.3858 6.15234 19.1133 6.15234C19.4533 6.15234 19.7285 5.87717 19.7285 5.53711V4.30664C19.7285 3.28888 18.9006 2.46094 17.8828 2.46094ZM8.07241 2.46094L8.34188 1.65104C8.426 1.39929 8.6609 1.23047 8.92586 1.23047H12.0741C12.3391 1.23047 12.574 1.39929 12.6575 1.65104L12.9273 2.46094H8.07241Z" fill="white"/>
<path d="M2.65234 7.46484L3.63331 19.3213C3.72043 20.2784 4.51052 21 5.47122 21H15.5289C16.4896 21 17.2797 20.2784 17.3674 19.3159L18.3478 7.46484H2.65234ZM7.42386 17.9238C7.42386 18.7348 6.19339 18.7382 6.19339 17.9238V9.31055C6.19339 8.49954 7.42386 8.49622 7.42386 9.31055V17.9238ZM11.1153 17.9238C11.1153 18.7348 9.88479 18.7382 9.88479 17.9238V9.31055C9.88479 8.49954 11.1153 8.49622 11.1153 9.31055V17.9238ZM14.8067 17.9238C14.8067 18.7348 13.5762 18.7382 13.5762 17.9238V9.31055C13.5762 8.97049 13.8514 8.69531 14.1914 8.69531C14.5315 8.69531 14.8067 8.97049 14.8067 9.31055V17.9238Z" fill="white"/>
</svg>
