<svg width="35" height="19" viewBox="0 0 35 19" fill="none" xmlns="http://www.w3.org/2000/svg">
<g id="Vector">
<path d="M18.5835 0H15.8415C14.9532 0 14.1542 0.493517 13.7563 1.28858L13.6234 1.55438H20.8016L20.6687 1.28858C20.2715 0.493517 19.4718 0 18.5835 0Z" fill="white" fill-opacity="0.72"/>
<path d="M2.40464 16.3172C1.93833 15.3799 1.66864 14.3283 1.66864 13.2123V6.99473C1.66864 6.48256 1.74481 5.98904 1.87771 5.51884C0.867357 5.77376 0.114258 6.68308 0.114258 7.77192V13.9895C0.114258 15.2609 1.1386 16.2946 2.40464 16.3172Z" fill="white" fill-opacity="0.72"/>
<path d="M32.5473 5.51884C32.6802 5.98904 32.7563 6.48256 32.7563 6.99473V13.2123C32.7563 14.3283 32.4867 15.3799 32.0203 16.3172C33.2864 16.2946 34.3107 15.2609 34.3107 13.9895V7.77192C34.3107 6.68308 33.5576 5.77376 32.5473 5.51884Z" fill="white" fill-opacity="0.72"/>
<path d="M27.316 3.10877H7.10899C4.3997 3.10877 3.22303 5.46211 3.22303 6.99473V13.2123C3.22303 14.3524 3.57199 15.4133 4.1782 16.2853C4.46576 16.6988 5.89424 18.6526 8.66337 18.6526H13.0677C14.6532 18.6526 15.8143 17.5645 15.8143 17.5645C17.169 16.6117 18.4132 17.4153 18.6114 17.5645C18.6114 17.5645 19.7252 18.6526 21.358 18.6526H25.7616C28.6512 18.6526 31.202 16.3218 31.202 13.2123V6.99473C31.202 5.21341 29.7851 3.10877 27.316 3.10877ZM8.6626 7.77348H7.10821C6.05978 7.77348 6.0932 6.21909 7.10821 6.21909H8.6626C9.73124 6.24241 9.67605 7.77348 8.6626 7.77348Z" fill="white" fill-opacity="0.72"/>
</g>
</svg>
