<svg width="24" height="20" viewBox="0 0 24 20" fill="none" xmlns="http://www.w3.org/2000/svg">
<path id="Vector" d="M23.1954 0H0.719004C0.332655 0 0.0195312 0.313123 0.0195312 0.699473V19.233C0.0195312 19.6193 0.332655 19.9324 0.719004 19.9324H23.1954C23.5818 19.9324 23.8949 19.6193 23.8949 19.233V0.699473C23.8949 0.313123 23.5818 0 23.1954 0ZM8.99811 12.3144V7.61806C8.99811 7.28217 9.18973 6.97597 9.49812 6.81895C9.81142 6.65957 10.1927 6.68088 10.4827 6.87068L14.485 9.207C14.5054 9.21884 14.525 9.23177 14.5442 9.24561C14.7808 9.41793 14.9165 9.6806 14.9165 9.96622C14.9165 10.2518 14.7808 10.5145 14.5442 10.6868C14.525 10.7007 14.5054 10.7136 14.485 10.7254L10.4827 13.0617C10.3224 13.1665 10.1346 13.2199 9.94549 13.2199C9.7923 13.2199 9.63838 13.1847 9.49812 13.1133C9.18955 12.9565 8.99811 12.6503 8.99811 12.3144ZM16.4446 2.61683V1.39895H18.7916V2.61683H16.4446ZM15.0456 2.61683H12.6984V1.39895H15.0456V2.61683ZM11.2994 2.61683H8.95238V1.39895H11.2994V2.61683ZM7.55344 2.61683H5.20638V1.39895H7.55344V2.61683ZM7.55344 17.3156V18.5335H5.20638V17.3156H7.55344ZM8.95238 17.3156H11.2994V18.5335H8.95238V17.3156ZM12.6984 17.3156H15.0456V18.5335H12.6984V17.3156ZM16.4446 17.3156H18.7916V18.5335H16.4446V17.3156ZM22.4959 2.61683H20.1906V1.39895H22.4959V2.61683ZM3.80743 1.39895V2.61683H1.41848V1.39895H3.80743ZM1.41848 17.3156H3.80743V18.5335H1.41848V17.3156ZM20.1906 18.5335V17.3156H22.4959V18.5335H20.1906Z" fill="white" fill-opacity="0.72"/>
</svg>
