<svg width="25" height="20" viewBox="0 0 25 20" fill="none" xmlns="http://www.w3.org/2000/svg">
<path d="M13.0224 0H11.1061C10.4852 0 9.92684 0.527315 9.64873 1.37683L9.55584 1.66083H14.5727L14.4798 1.37683C14.2022 0.527315 13.6433 0 13.0224 0Z" fill="white" fill-opacity="0.72"/>
<path d="M1.71501 17.4346C1.38911 16.4331 1.20062 15.3096 1.20062 14.1171V7.47375C1.20062 6.92651 1.25385 6.39919 1.34674 5.89679C0.640601 6.16917 0.114258 7.14075 0.114258 8.30417V14.9475C0.114258 16.3061 0.830172 17.4105 1.71501 17.4346Z" fill="white" fill-opacity="0.72"/>
<path d="M22.7818 5.89679C22.8747 6.39919 22.9279 6.92651 22.9279 7.47375V14.1171C22.9279 15.3096 22.7394 16.4331 22.4135 17.4346C23.2983 17.4105 24.0143 16.3061 24.0143 14.9475V8.30417C24.0143 7.14075 23.4879 6.16917 22.7818 5.89679Z" fill="white" fill-opacity="0.72"/>
<path d="M19.1256 3.32167H5.00289C3.10936 3.32167 2.28698 5.83617 2.28698 7.47375V14.1171C2.28698 15.3353 2.53087 16.4688 2.95456 17.4006C3.15553 17.8423 4.1539 19.93 6.08926 19.93H9.16747C10.2756 19.93 11.0871 18.7674 11.0871 18.7674C12.0338 17.7493 12.9035 18.608 13.042 18.7674C13.042 18.7674 13.8204 19.93 14.9616 19.93H18.0393C20.0588 19.93 21.8415 17.4396 21.8415 14.1171V7.47375C21.8415 5.57043 20.8513 3.32167 19.1256 3.32167ZM6.08871 8.30583H5.00235C4.2696 8.30583 4.29295 6.64499 5.00235 6.64499H6.08871C6.83559 6.66991 6.79702 8.30583 6.08871 8.30583Z" fill="white" fill-opacity="0.72"/>
</svg>
