<svg width="74" height="74" viewBox="0 0 74 74" fill="none" xmlns="http://www.w3.org/2000/svg">
<g id="vr-glasses 1" clip-path="url(#clip0_0_3572)">
<path id="Vector" d="M55.1919 28.264C54.6546 28.042 54.0385 28.2974 53.8162 28.8349L51.464 34.5249L49.1117 28.8349C48.8894 28.2975 48.2736 28.0416 47.7361 28.264C47.1986 28.4861 46.9429 29.102 47.1652 29.6395L50.4374 37.5547C50.8052 38.4445 52.1359 38.413 52.4906 37.5547L55.7628 29.6395C55.985 29.102 55.7294 28.4861 55.1919 28.264ZM62.393 34.2853C65.3913 32.7096 64.2449 28.1841 60.8932 28.1841H58.2303C57.6487 28.1841 57.1771 28.6555 57.1771 29.2371V37.2285C57.1771 37.8103 57.6486 38.2816 58.2303 38.2816C58.8119 38.2816 59.2834 37.8101 59.2834 37.2285V34.6552H60.1129L62.197 37.8091C62.5176 38.2943 63.171 38.428 63.6562 38.1072C64.1415 37.7866 64.2749 37.1333 63.9542 36.648L62.393 34.2853ZM60.8932 32.5491H59.2834V30.2903H60.8932C61.516 30.2903 62.0225 30.797 62.0225 31.4197C62.0225 32.0423 61.516 32.5491 60.8932 32.5491ZM8.6606 37.3843C8.07901 37.3843 7.60755 37.8558 7.60755 38.4375V40.0906C7.60755 40.6723 8.07901 41.1437 8.6606 41.1437C9.2422 41.1437 9.7138 40.6723 9.7138 40.0906V38.4375C9.7138 37.8558 9.2422 37.3843 8.6606 37.3843ZM13.8394 26.0743C10.2283 26.0743 7.6074 28.6953 7.6074 32.3064V34.8561C7.6074 35.4378 8.07886 35.9093 8.66046 35.9093C9.24205 35.9093 9.71366 35.4378 9.71366 34.8561V32.3064C9.71366 30.2527 10.9893 28.1807 13.8394 28.1807C14.421 28.1807 14.8926 27.7093 14.8926 27.1275C14.8926 26.5458 14.421 26.0743 13.8394 26.0743ZM71.3337 31.6835H70.2708C70.2043 26.4393 65.92 22.1931 60.6602 22.1931H44.1794V21.1333C44.1794 19.6629 42.9833 18.4668 41.5131 18.4668H32.4869C31.0167 18.4668 29.8206 19.6629 29.8206 21.1333V22.1931H13.3398C8.08016 22.1931 3.79582 26.4394 3.7292 31.6835H2.66631C1.19614 31.6835 0 32.8796 0 34.3499V43.3762C0 44.8464 1.19614 46.0425 2.66646 46.0425H3.72934C3.79582 51.2867 8.08016 55.533 13.3399 55.533H29.3202C31.5176 55.533 33.3053 53.7453 33.3053 51.548C33.3053 50.4368 34.2091 49.5331 35.3201 49.5331H38.68C39.791 49.5331 40.6948 50.437 40.6948 51.548C40.6948 53.7453 42.4825 55.533 44.68 55.533H60.6602C65.92 55.533 70.2043 51.2867 70.2708 46.0425H71.3337C72.8039 46.0425 74 44.8464 74 43.3762V34.3499C74 32.8796 72.8039 31.6835 71.3337 31.6835ZM3.72616 43.9361H2.66646C2.35759 43.9361 2.10625 43.6849 2.10625 43.376V34.3498C2.10625 34.0409 2.35759 33.7896 2.66646 33.7896H3.72616V43.9361ZM31.9268 21.1333C31.9268 20.8244 32.1782 20.573 32.4869 20.573H41.5131C41.822 20.573 42.0732 20.8244 42.0732 21.1333V22.1931H31.9268V21.1333ZM68.1492 45.9194C68.1492 50.0488 64.7896 53.4084 60.6602 53.4084H44.68C43.6541 53.4084 42.8194 52.5737 42.8194 51.5478C42.8194 49.2653 40.9625 47.4083 38.6799 47.4083H35.32C33.0375 47.4083 31.1804 49.2653 31.1804 51.5478C31.1804 52.5737 30.3459 53.4084 29.3199 53.4084H13.3398C9.2104 53.4084 5.85077 50.0488 5.85077 45.9194V31.8066C5.85077 27.6772 9.2104 24.3176 13.3398 24.3176H60.6602C64.7896 24.3176 68.1492 27.6772 68.1492 31.8066V45.9194ZM71.8937 43.3762C71.8937 43.685 71.6424 43.9362 71.3337 43.9362H70.274V33.7899H71.3337C71.6425 33.7899 71.8937 34.0412 71.8937 34.3501V43.3762Z" fill="white"/>
</g>
<defs>
<clipPath id="clip0_0_3572">
<rect width="74" height="74" fill="white"/>
</clipPath>
</defs>
</svg>
