<svg width="33" height="43" viewBox="0 0 33 43" fill="none" xmlns="http://www.w3.org/2000/svg">
<g id="contactless indicator">
<path id="Vector" d="M24.3218 0.12542C23.7866 0.0445475 23.2209 0.167806 22.7526 0.517726C21.8138 1.21122 21.6172 2.53571 22.3107 3.47447C25.9051 8.33741 27.8856 14.6472 27.8856 21.2438C27.8856 27.8405 25.9051 34.1523 22.3107 39.0174C21.6172 39.9561 21.8138 41.2806 22.7526 41.9741C23.1289 42.2553 23.5703 42.3871 24.008 42.3871C24.6571 42.3871 25.2949 42.0904 25.7093 41.5322C29.8386 35.9441 32.1142 28.7391 32.1142 21.2438C32.1142 13.7486 29.8386 6.54562 25.7093 0.959586C25.3626 0.491264 24.857 0.206293 24.3218 0.12542ZM17.2108 4.43665C16.6745 4.36609 16.1128 4.5016 15.6498 4.85786C14.7237 5.56828 14.5471 6.8968 15.2575 7.82287C17.9067 11.2734 19.4283 16.1653 19.4283 21.2438C19.4283 26.3098 17.9148 31.1956 15.274 34.6483C14.5657 35.5744 14.7422 36.9009 15.6704 37.6092C16.0531 37.9031 16.5024 38.0469 16.9506 38.0469C17.5849 38.0469 18.2127 37.7603 18.6313 37.2169C21.8704 32.9819 23.657 27.3077 23.657 21.2438C23.657 15.1631 21.8646 9.48314 18.6107 5.24604C18.2544 4.783 17.747 4.50722 17.2108 4.43665ZM10.1245 8.66942C9.58453 8.63295 9.03114 8.80388 8.59242 9.18974C7.71286 9.95724 7.62459 11.2917 8.3942 12.1713C9.98417 13.9896 10.971 17.4656 10.971 21.2438C10.971 25.0221 9.98215 28.4981 8.39007 30.3164C7.62257 31.196 7.71286 32.5305 8.59242 33.298C8.99414 33.6489 9.49143 33.8224 9.98407 33.8224C10.574 33.8224 11.1594 33.5797 11.5781 33.0997C13.8446 30.5076 15.1997 26.073 15.1997 21.2438C15.1997 16.4147 13.8426 11.9801 11.5739 9.38796C11.1891 8.94713 10.6644 8.70589 10.1245 8.66942ZM2.65002 13.183C2.11007 13.1479 1.55774 13.3185 1.11796 13.7033C0.240519 14.4729 0.152147 15.8074 0.923874 16.6848C1.9324 17.8371 2.51374 19.4995 2.51374 21.2438C2.51374 22.9882 1.9324 24.6505 0.923874 25.8029C0.154261 26.6803 0.244648 28.0148 1.12209 28.7844C1.52381 29.1354 2.01899 29.3088 2.51374 29.3088C3.09941 29.3088 3.68709 29.066 4.10361 28.5903C5.80776 26.6515 6.74239 24.0411 6.74239 21.2438C6.74239 18.4466 5.80776 15.8362 4.10361 13.8974C3.71986 13.4587 3.18996 13.2182 2.65002 13.183Z" fill="white"/>
</g>
</svg>
